<?xml version="1.0" encoding="UTF-8"?>
<svg width="300" height="60" viewBox="0 0 100 100" version="1.1" xmlns="http://www.w3.org/2000/svg" xmlns:xlink="http://www.w3.org/1999/xlink">
    <!-- Generator: Sketch 52.5 (67469) - http://www.bohemiancoding.com/sketch -->
    <title>learn</title>
    <desc>Created with Sketch.</desc>
    <g id="UUi_Navigation" stroke="none" stroke-width="1" fill="grey" fill-rule="evenodd">
        <g id="Logotypes" transform="translate(-656.000000, -1973.000000)">
            <g id="logo/learn" transform="translate(654.000000, 1962.000000)">
                <path d="M60,44.24 L60,37.68 L61.64,37.68 C63.66,37.68 64.74,38.85 64.74,40.93 C64.74,43.02 63.66,44.24 61.68,44.24 L60,44.24 Z M60.83,43.56 L61.58,43.56 C63.11,43.56 63.88,42.59 63.88,40.93 C63.88,39.28 63.11,38.36 61.58,38.36 L60.83,38.36 L60.83,43.56 Z M66.37,44.24 L66.37,39.38 L67.19,39.38 L67.19,44.24 L66.37,44.24 Z M66.79,38.38 C66.47,38.38 66.22,38.16 66.22,37.85 C66.22,37.53 66.47,37.32 66.79,37.32 C67.11,37.32 67.36,37.53 67.36,37.85 C67.36,38.16 67.11,38.38 66.79,38.38 Z M70.77,46.48 C69.58,46.48 68.76,46.01 68.76,45.17 C68.76,44.76 69.03,44.37 69.47,44.07 L69.47,44.03 C69.23,43.88 69.04,43.62 69.04,43.24 C69.04,42.83 69.32,42.51 69.57,42.34 L69.57,42.3 C69.25,42.04 68.94,41.57 68.94,40.99 C68.94,39.93 69.78,39.26 70.77,39.26 C71.04,39.26 71.28,39.31 71.46,39.38 L73.15,39.38 L73.15,40.01 L72.15,40.01 C72.38,40.23 72.55,40.6 72.55,41.01 C72.55,42.05 71.76,42.7 70.77,42.7 C70.53,42.7 70.26,42.64 70.04,42.53 C69.87,42.68 69.73,42.84 69.73,43.11 C69.73,43.42 69.93,43.64 70.59,43.64 L71.53,43.64 C72.66,43.64 73.23,43.99 73.23,44.8 C73.23,45.7 72.28,46.48 70.77,46.48 Z M70.77,42.15 C71.33,42.15 71.8,41.7 71.8,40.99 C71.8,40.28 71.34,39.86 70.77,39.86 C70.2,39.86 69.74,40.28 69.74,40.99 C69.74,41.7 70.21,42.15 70.77,42.15 Z M70.89,45.91 C71.82,45.91 72.43,45.43 72.43,44.92 C72.43,44.47 72.08,44.32 71.45,44.32 L70.61,44.32 C70.42,44.32 70.19,44.3 69.98,44.24 C69.63,44.49 69.48,44.78 69.48,45.06 C69.48,45.58 70.01,45.91 70.89,45.91 Z M74.47,44.24 L74.47,39.38 L75.29,39.38 L75.29,44.24 L74.47,44.24 Z M74.89,38.38 C74.57,38.38 74.32,38.16 74.32,37.85 C74.32,37.53 74.57,37.32 74.89,37.32 C75.21,37.32 75.46,37.53 75.46,37.85 C75.46,38.16 75.21,38.38 74.89,38.38 Z M78.76,44.36 C77.72,44.36 77.37,43.7 77.37,42.74 L77.37,40.05 L76.65,40.05 L76.65,39.43 L77.41,39.38 L77.51,38.02 L78.2,38.02 L78.2,39.38 L79.51,39.38 L79.51,40.05 L78.2,40.05 L78.2,42.75 C78.2,43.35 78.39,43.69 78.95,43.69 C79.12,43.69 79.34,43.62 79.5,43.56 L79.66,44.18 C79.39,44.27 79.06,44.36 78.76,44.36 Z M81.8200001,44.36 C81.0100001,44.36 80.4000001,43.85 80.4000001,42.98 C80.4000001,41.92 81.3100001,41.39 83.3800001,41.16 C83.3800001,40.54 83.1800001,39.94 82.3800001,39.94 C81.8200001,39.94 81.3100001,40.2 80.9300001,40.46 L80.6100001,39.89 C81.0600001,39.6 81.7400001,39.26 82.5200001,39.26 C83.7100001,39.26 84.2100001,40.05 84.2100001,41.26 L84.2100001,44.24 L83.5300001,44.24 L83.4600001,43.66 L83.4300001,43.66 C82.9700001,44.04 82.4300001,44.36 81.8200001,44.36 Z M82.0600001,43.7 C82.5300001,43.7 82.9100001,43.47 83.3800001,43.05 L83.3800001,41.7 C81.7600001,41.9 81.2000001,42.3 81.2000001,42.92 C81.2000001,43.47 81.5800001,43.7 82.0600001,43.7 Z M86.9100001,44.36 C86.2900001,44.36 86.0400001,43.97 86.0400001,43.26 L86.0400001,37.12 L86.8600001,37.12 L86.8600001,43.32 C86.8600001,43.58 86.9700001,43.68 87.0900001,43.68 C87.1400001,43.68 87.1800001,43.68 87.2700001,43.66 L87.3800001,44.28 C87.2700001,44.33 87.1300001,44.36 86.9100001,44.36 Z M91.2700001,44.24 L91.2700001,37.68 L93.1400001,37.68 C94.6100001,37.68 95.6000001,38.17 95.6000001,39.61 C95.6000001,40.99 94.6200001,41.64 93.1800001,41.64 L92.1000001,41.64 L92.1000001,44.24 L91.2700001,44.24 Z M92.1000001,40.96 L93.0800001,40.96 C94.2200001,40.96 94.7700001,40.54 94.7700001,39.61 C94.7700001,38.66 94.1900001,38.35 93.0400001,38.35 L92.1000001,38.35 L92.1000001,40.96 Z M98.0200001,44.36 C97.4000001,44.36 97.1500001,43.97 97.1500001,43.26 L97.1500001,37.12 L97.9700001,37.12 L97.9700001,43.32 C97.9700001,43.58 98.0800001,43.68 98.2000001,43.68 C98.2500001,43.68 98.2900001,43.68 98.3800001,43.66 L98.4900001,44.28 C98.3800001,44.33 98.2400001,44.36 98.0200001,44.36 Z M101.12,44.36 C100.31,44.36 99.7000001,43.85 99.7000001,42.98 C99.7000001,41.92 100.61,41.39 102.68,41.16 C102.68,40.54 102.48,39.94 101.68,39.94 C101.12,39.94 100.61,40.2 100.23,40.46 L99.9100001,39.89 C100.36,39.6 101.04,39.26 101.82,39.26 C103.01,39.26 103.51,40.05 103.51,41.26 L103.51,44.24 L102.83,44.24 L102.76,43.66 L102.73,43.66 C102.27,44.04 101.73,44.36 101.12,44.36 Z M101.36,43.7 C101.83,43.7 102.21,43.47 102.68,43.05 L102.68,41.7 C101.06,41.9 100.5,42.3 100.5,42.92 C100.5,43.47 100.88,43.7 101.36,43.7 Z M106.73,44.36 C105.69,44.36 105.34,43.7 105.34,42.74 L105.34,40.05 L104.62,40.05 L104.62,39.43 L105.38,39.38 L105.48,38.02 L106.17,38.02 L106.17,39.38 L107.48,39.38 L107.48,40.05 L106.17,40.05 L106.17,42.75 C106.17,43.35 106.36,43.69 106.92,43.69 C107.09,43.69 107.31,43.62 107.47,43.56 L107.63,44.18 C107.36,44.27 107.03,44.36 106.73,44.36 Z M111.25,37.16 L111.07,37.79 C110.89,37.71 110.7,37.67 110.52,37.67 C110.06,37.67 109.84,37.99 109.84,38.61 L109.84,39.38 L110.87,39.38 L110.87,40.05 L109.84,40.05 L109.84,44.24 L109.02,44.24 L109.02,40.05 L108.36,40.05 L108.36,39.43 L109.02,39.38 L109.02,38.61 C109.02,37.62 109.47,37 110.44,37 C110.74,37 111.03,37.07 111.25,37.16 Z M113.89,44.36 C112.7,44.36 111.64,43.43 111.64,41.82 C111.64,40.19 112.7,39.26 113.89,39.26 C115.08,39.26 116.14,40.19 116.14,41.82 C116.14,43.43 115.08,44.36 113.89,44.36 Z M113.89,43.68 C114.73,43.68 115.29,42.93 115.29,41.82 C115.29,40.7 114.73,39.94 113.89,39.94 C113.06,39.94 112.49,40.7 112.49,41.82 C112.49,42.93 113.06,43.68 113.89,43.68 Z M117.72,44.24 L117.72,39.38 L118.4,39.38 L118.47,40.26 L118.5,40.26 C118.83,39.65 119.33,39.26 119.88,39.26 C120.09,39.26 120.24,39.29 120.4,39.36 L120.24,40.08 C120.08,40.03 119.97,40 119.77,40 C119.36,40 118.87,40.3 118.54,41.12 L118.54,44.24 L117.72,44.24 Z M121.49,44.24 L121.49,39.38 L122.17,39.38 L122.24,40.08 L122.27,40.08 C122.69,39.62 123.2,39.26 123.78,39.26 C124.52,39.26 124.92,39.61 125.12,40.19 C125.63,39.64 126.13,39.26 126.72,39.26 C127.72,39.26 128.2,39.92 128.2,41.16 L128.2,44.24 L127.38,44.24 L127.38,41.27 C127.38,40.36 127.09,39.97 126.48,39.97 C126.1,39.97 125.71,40.22 125.26,40.72 L125.26,44.24 L124.44,44.24 L124.44,41.27 C124.44,40.36 124.15,39.97 123.53,39.97 C123.17,39.97 122.76,40.22 122.31,40.72 L122.31,44.24 L121.49,44.24 Z" id="Digital-Platform" fill="#FFFFFF" fill-rule="evenodd"></path>
                <path d="M60,29 L60,15.92 L62.32,15.92 L62.32,27.04 L67.76,27.04 L67.76,29 L60,29 Z M70.04,29 L70.04,15.92 L77.92,15.92 L77.92,17.88 L72.36,17.88 L72.36,21.22 L77.06,21.22 L77.06,23.18 L72.36,23.18 L72.36,27.04 L78.12,27.04 L78.12,29 L70.04,29 Z M83.02,23.64 L86.36,23.64 L85.9,22.04 C85.48,20.66 85.1,19.16 84.72,17.72 L84.64,17.72 C84.28,19.18 83.9,20.66 83.48,22.04 L83.02,23.64 Z M87.9,29 L86.88,25.46 L82.48,25.46 L81.46,29 L79.1,29 L83.36,15.92 L86.08,15.92 L90.34,29 L87.9,29 Z M94.28,17.78 L94.28,22.04 L96.14,22.04 C97.92,22.04 98.9,21.28 98.9,19.8 C98.9,18.3 97.92,17.78 96.14,17.78 L94.28,17.78 Z M101.7,29 L99.1,29 L96.28,23.88 L94.28,23.88 L94.28,29 L91.96,29 L91.96,15.92 L96.38,15.92 C99.1,15.92 101.18,16.88 101.18,19.8 C101.18,21.8 100.14,23 98.58,23.54 L101.7,29 Z M103.8,29 L103.8,15.92 L106.18,15.92 L110.26,23.28 L111.6,26.06 L111.68,26.06 C111.58,24.72 111.38,23.06 111.38,21.6 L111.38,15.92 L113.6,15.92 L113.6,29 L111.22,29 L107.14,21.64 L105.8,18.86 L105.72,18.86 C105.82,20.24 106.02,21.82 106.02,23.28 L106.02,29 L103.8,29 Z" id="Application-name" fill="#FFFFFF" fill-rule="evenodd"></path>
                <g id="logo" stroke-width="1" fill-rule="evenodd" transform="translate(18.000000, 12.000000)" fill="#FFFFFF">
                    <path d="M27.7396107,6 C27.6906845,6.00139218 27.6419059,6.00605081 27.5936006,6.01394478 L18.3482094,7.98262004 L18.3482094,24.5055474 L18.6960087,24.4292613 L27.8831599,22.4696091 C28.2056622,22.4000592 28.435111,22.1137619 28.4327484,21.7838539 L28.4327484,6.6997 C28.4327653,6.31581464 28.1234792,6.00360033 27.7396107,6 Z M25.7012115,20.504215 L20.5047291,21.6091339 C20.4564773,21.6174343 20.4076697,21.6220957 20.358719,21.6230787 C19.9851582,21.6217222 19.6831728,21.318269 19.6836275,20.944706 C19.6832913,20.6231284 19.9056953,20.3441868 20.2192712,20.2728956 L25.4231361,19.1671563 C25.4692797,19.1595837 25.5158546,19.1549262 25.562584,19.1532116 C25.9361448,19.1550195 26.2377641,19.4588404 26.2368552,19.8324045 C26.2371914,20.1539822 26.0147874,20.4329238 25.7012115,20.504215 Z M25.7012115,16.9917702 L20.5047291,18.1040717 C20.4610623,18.1116223 20.4169446,18.1162807 20.3726638,18.1180165 C20.1902887,18.1186703 20.0151472,18.0467362 19.8858804,17.9180849 C19.7566135,17.7894335 19.6838442,17.6146374 19.6836275,17.4322613 C19.6814598,17.1115897 19.9054415,16.8337564 20.2192712,16.7678334 L25.4231361,15.6555319 C25.4692254,15.6475541 25.5158277,15.6428939 25.562584,15.6415871 C25.909123,15.6465997 26.1970245,15.9102581 26.2324224,16.2550209 C26.2678203,16.5997837 26.0395019,16.916444 25.7012115,16.9917702 Z M25.7012115,13.4793254 L20.5047291,14.5916269 C20.4586399,14.5996047 20.4120376,14.6042649 20.3652813,14.6055717 C19.9879639,14.6037645 19.6831713,14.2971379 19.6836275,13.9198165 C19.6817788,13.5992564 19.9056181,13.3215997 20.2192712,13.2553886 L25.4231361,12.1430871 C25.4666969,12.1347969 25.5108699,12.1301327 25.5552014,12.1291423 C25.9327073,12.1304992 26.237763,12.4373903 26.2368552,12.8148975 C26.2390229,13.1355691 26.0150413,13.4134024 25.7012115,13.4793254 Z M25.7012115,9.97426318 L20.5047291,11.0791822 C20.4564773,11.0874825 20.4076697,11.0921439 20.358719,11.0931269 C19.9851582,11.0917705 19.6831728,10.7883173 19.6836275,10.4147543 C19.6835971,10.0932835 19.9058676,9.81450934 20.2192712,9.74294383 L25.4231361,8.63802485 C25.4692086,8.62979428 25.5158095,8.62486008 25.562584,8.62325978 C25.9361448,8.62506771 26.2377641,8.92888864 26.2368552,9.30245274 C26.2371914,9.62403037 26.0147874,9.90297197 25.7012115,9.97426318 Z M8.40721966,6.01394478 C8.3589144,6.00605081 8.3101358,6.00139218 8.26120958,6 C7.8763786,6.00225579 7.56560438,6.31486241 7.56561099,6.6997 L7.56561099,21.7838539 C7.56324847,22.1137619 7.79269722,22.4000592 8.1151995,22.4696091 L17.3023507,24.4292613 L17.65015,24.5055474 L17.65015,7.98672145 L8.40721966,6.01394478 Z M15.6421012,21.6230787 C15.5931505,21.6220957 15.544343,21.6174343 15.4960912,21.6091339 L10.2996088,20.504215 C9.98603286,20.4329238 9.76362887,20.1539822 9.76396503,19.8324045 C9.76305614,19.4588404 10.0646755,19.1550195 10.4382363,19.1532116 C10.487165,19.1545642 10.5359462,19.1592231 10.5842464,19.1671563 L15.7815491,20.2728956 C16.095125,20.3441868 16.317529,20.6231284 16.3171928,20.944706 C16.3176475,21.318269 16.015662,21.6217222 15.6421012,21.6230787 Z M15.6281565,18.1180165 C15.5838757,18.1162807 15.5397579,18.1116223 15.4960912,18.1040717 L10.2996088,16.9917702 C9.96008761,16.9160123 9.73167923,16.597266 9.76908022,16.2514119 C9.80648121,15.9055579 10.0977513,15.6430101 10.4456188,15.6415871 C10.4921032,15.6428964 10.5384326,15.6475567 10.5842464,15.6555319 L15.7815491,16.7678334 C16.0953788,16.8337564 16.3193605,17.1115897 16.3171928,17.4322613 C16.3169791,17.6150662 16.2438722,17.790238 16.1140717,17.9189606 C15.9842713,18.0476833 15.8084959,18.119327 15.6256956,18.1180165 L15.6281565,18.1180165 Z M15.6347187,14.6055717 C15.5882369,14.604223 15.5419103,14.599563 15.4960912,14.5916269 L10.2996088,13.4793254 C9.985779,13.4134024 9.76179732,13.1355691 9.76396503,12.8148975 C9.76396385,12.6325968 9.83655056,12.4577983 9.96568734,12.3291232 C10.0948241,12.2004482 10.2698815,12.1284881 10.4521811,12.1291423 C10.4964904,12.1304706 10.5406368,12.135132 10.5842464,12.1430871 L15.7815491,13.2553886 C16.0952022,13.3215997 16.3190415,13.5992564 16.3171928,13.9198165 C16.3176475,14.2974567 16.0123568,14.6042152 15.6347187,14.6055717 Z M15.6421012,11.0931269 C15.5931505,11.0921439 15.544343,11.0874825 15.4960912,11.0791822 L10.2996088,9.97426318 C9.98603286,9.90297197 9.76362887,9.62403037 9.76396503,9.30245274 C9.76305614,8.92888864 10.0646755,8.62506771 10.4382363,8.62325978 C10.4872098,8.62447946 10.5360201,8.62941534 10.5842464,8.63802485 L15.7815491,9.74294383 C16.0949527,9.81450934 16.3172232,10.0932835 16.3171928,10.4147543 C16.3176475,10.7883173 16.015662,11.0917705 15.6421012,11.0931269 Z M5.47881522,9.49849999 C4.70787067,9.50121142 4.08433214,10.1269507 4.08433691,10.8979 L4.08433691,25.5899594 L5.47881522,25.5899594 L5.47881522,10.8979 L6.87329352,10.8979 L6.87329352,9.49849999 L5.47881522,9.49849999 Z M30.5220051,9.49849999 L29.1275267,9.49849999 L29.1275267,10.8979 L30.5220051,10.8979 L30.5220051,25.5899594 L31.9164836,25.5899594 L31.9164834,10.8979 C31.916939,10.1267645 31.2931374,9.50076125 30.5220051,9.49849999 Z M33.999998,26.9893594 L33.999998,29.0884594 C34.0009057,29.473668 33.6896068,29.7868025 33.3043994,29.7881594 L2.69560057,29.7881594 C2.31039324,29.7868025 1.99909428,29.473668 2.00000198,29.0884594 L2.00000198,26.9893594 C1.99909428,26.6041507 2.31039324,26.2910163 2.69560057,26.2896594 L14.5224172,26.2896594 L14.5224172,26.9893594 C14.5217635,27.1744208 14.5947086,27.3521503 14.7251824,27.4833933 C14.8556561,27.6146364 15.0329537,27.6886251 15.2180158,27.6890594 L20.7828045,27.6890594 C20.9678665,27.6886251 21.1451641,27.6146364 21.2756379,27.4833933 C21.4061117,27.3521503 21.4790568,27.1744208 21.4784031,26.9893594 L21.4784031,26.2896594 L33.3052197,26.2896594 C33.6901063,26.2914674 34.0009068,26.6044696 33.999998,26.9893594 Z" id="Learn.svg"></path>
                </g>
            </g>
        </g>
    </g>
</svg>